# xmcd CD database file
# Copyright (C) 1996 Ti Kan
#
# Track frame offsets:
#  150
#  17122
#  37537
#  54717
#  76450
#  98725
#  121982
#  137287
#  151142
#  166352
#  187265
#  205507
#  223952
#
# Disc length: 3147 seconds
#
# Revision: 2
# Processed by: cddbd v1.4PL0 Copyright (c) Steve Scherf et al.
# Submitted via: Gronk 1.4
#
DISCID=a60c490d
DTITLE=Jimmy Rogers - Ludella
DYEAR=1900
DGENRE=blues
TTITLE0=You're Sweet
TTITLE1=Rock This House
TTITLE2=Can't Sleep For Worrying
TTITLE3=Why Did You Do It?
TTITLE4=Sloppy Drunk
TTITLE5=Gold Tailed Bird
TTITLE6=Chicago Bound
TTITLE7=Monkey Faced Woman
TTITLE8=Ludella
TTITLE9=Got My Mojo Working
TTITLE10=Why Did You Do It? (Alt.)
TTITLE11=You're Sweet (Alt.)
TTITLE12=Naptown
EXTD=ANT 0012\n\nJimmy Rogers:  vocal and guitar\nPinetop Perkins:  piano
EXTD=\nKim Wilson:  harmonica\nDerek O'Brien:  guitar\nBob Stoger:  bass\n
EXTD=Ted Harvey:  drums\n\nSubmitted 6/27/97\n[Jmccoy@efn.org]
EXTT0=
EXTT1=
EXTT2=
EXTT3=
EXTT4=
EXTT5=
EXTT6=
EXTT7=
EXTT8=
EXTT9=
EXTT10=
EXTT11=
EXTT12=
PLAYORDER=
